<?xml version="1.0" encoding="utf-8"?>
<!-- Generator: Adobe Illustrator 18.0.0, SVG Export Plug-In . SVG Version: 6.00 Build 0)  -->
<!DOCTYPE svg PUBLIC "-//W3C//DTD SVG 1.1//EN" "http://www.w3.org/Graphics/SVG/1.1/DTD/svg11.dtd">
<svg version="1.1" xmlns="http://www.w3.org/2000/svg" xmlns:xlink="http://www.w3.org/1999/xlink" x="0px" y="0px" width="20px"
	 height="16px" viewBox="0 0 20 16" enable-background="new 0 0 20 16" xml:space="preserve">
<g id="Layer_1" display="none">
	<rect x="-36.226" y="-49" display="inline" fill="#CDCDCD" width="1012" height="606"/>
</g>
<g id="Layer_2">
	<g>
		<g>
			<path fill="#FFFFFF" d="M18,0H2C0.896,0,0.01,0.896,0.01,2L0,14c0,1.104,0.896,2,2,2h16c1.104,0,2-0.896,2-2V2
				C20,0.896,19.104,0,18,0z M13,14H2v-4h11V14z M13,9H2V5h11V9z M18,14h-4V5h4V14z"/>
		</g>
		<rect x="-2" y="-4" fill="none" width="24" height="24"/>
	</g>
</g>
</svg>
