<?xml version="1.0" encoding="utf-8"?>
<!-- Generator: Adobe Illustrator 18.0.0, SVG Export Plug-In . SVG Version: 6.00 Build 0)  -->
<!DOCTYPE svg PUBLIC "-//W3C//DTD SVG 1.1//EN" "http://www.w3.org/Graphics/SVG/1.1/DTD/svg11.dtd">
<svg version="1.1" xmlns="http://www.w3.org/2000/svg" xmlns:xlink="http://www.w3.org/1999/xlink" x="0px" y="0px" width="20px"
	 height="19px" viewBox="0 0 20 19" enable-background="new 0 0 20 19" xml:space="preserve">
<g id="Layer_1" display="none">
	<rect x="-162" y="-47.5" display="inline" fill="#CDCDCD" width="1012" height="606"/>
</g>
<g id="Layer_2">
	<g>
		<g>
			<path fill="#FFFFFF" d="M10,8c2.209,0,4-1.791,4-4c0-2.209-1.791-4-4-4C7.791,0,6,1.791,6,4C6,6.209,7.791,8,10,8z M10,2
				c1.105,0,2,0.895,2,2c0,1.105-0.895,2-2,2C8.895,6,8,5.105,8,4C8,2.896,8.895,2,10,2z M4,11c-2.209,0-4,1.791-4,4
				c0,2.209,1.791,4,4,4c2.209,0,4-1.791,4-4C8,12.791,6.209,11,4,11z M4,17c-1.105,0-2-0.895-2-2c0-1.104,0.895-2,2-2
				c1.105,0,2,0.896,2,2C6,16.105,5.105,17,4,17z M10,9.1c-1.049,0-1.9,0.851-1.9,1.9s0.851,1.9,1.9,1.9c1.049,0,1.9-0.851,1.9-1.9
				S11.049,9.1,10,9.1z M16,11c-2.209,0-4,1.791-4,4c0,2.209,1.791,4,4,4c2.209,0,4-1.791,4-4C20,12.791,18.209,11,16,11z M16,17
				c-1.105,0-2-0.895-2-2c0-1.104,0.895-2,2-2c1.105,0,2,0.896,2,2C18,16.105,17.105,17,16,17z"/>
		</g>
	</g>
</g>
</svg>
