<?xml version="1.0" encoding="utf-8"?>
<!-- Generator: Adobe Illustrator 18.0.0, SVG Export Plug-In . SVG Version: 6.00 Build 0)  -->
<!DOCTYPE svg PUBLIC "-//W3C//DTD SVG 1.1//EN" "http://www.w3.org/Graphics/SVG/1.1/DTD/svg11.dtd">
<svg version="1.1" xmlns="http://www.w3.org/2000/svg" xmlns:xlink="http://www.w3.org/1999/xlink" x="0px" y="0px"
	 width="19.899px" height="20.366px" viewBox="0 0 19.899 20.366" enable-background="new 0 0 19.899 20.366" xml:space="preserve">
<g id="Layer_1" display="none">
	<rect x="-78.363" y="-46.583" display="inline" fill="#CDCDCD" width="1012" height="606"/>
</g>
<g id="Layer_2">
	<g>
		<g>
			<path fill="#FFFFFF" d="M8.949,2.486V0.467c-2.008,0.2-3.842,0.998-5.324,2.211l1.427,1.426C6.158,3.245,7.492,2.669,8.949,2.486
				z M16.273,2.678c-1.482-1.213-3.316-2.011-5.324-2.211v2.019c1.458,0.183,2.792,0.759,3.898,1.619L16.273,2.678z M17.88,9.417
				h2.019c-0.2-2.008-0.998-3.842-2.211-5.324l-1.427,1.427C17.121,6.625,17.697,7.959,17.88,9.417z M3.637,5.519L2.211,4.092
				C0.998,5.574,0.2,7.408,0,9.417h2.019C2.202,7.959,2.777,6.625,3.637,5.519z M2.019,11.417H0c0.2,2.008,0.998,3.842,2.211,5.324
				l1.427-1.427C2.777,14.208,2.202,12.874,2.019,11.417z M12.949,10.417c0-1.657-1.343-3-3-3c-1.657,0-3,1.343-3,3
				c0,1.657,1.343,3,3,3C11.606,13.417,12.949,12.073,12.949,10.417z M16.261,15.314l1.427,1.427
				c1.213-1.482,2.011-3.316,2.211-5.324H17.88C17.697,12.874,17.121,14.208,16.261,15.314z M10.949,18.347v2.019
				c2.008-0.2,3.842-0.998,5.324-2.211l-1.427-1.426C13.741,17.589,12.407,18.164,10.949,18.347z M3.625,18.155
				c1.482,1.213,3.316,2.011,5.324,2.211v-2.019c-1.458-0.183-2.792-0.759-3.898-1.619L3.625,18.155z"/>
		</g>
	</g>
</g>
</svg>
